<!-- https://github.com/scarletkc/glitter -->
<svg xmlns="http://www.w3.org/2000/svg" viewBox="0 0 505 505" width="256" height="256" preserveAspectRatio="xMidYMid meet">
  <g transform="matrix(-1,0,0,1,505,0) rotate(90,252.5,252.5)">
    <path fill="#F4D03F" d="M0,252.5C0,113,113,0,252.5,0C391.9,0,505,113,505,252.5S391.9,505,252.5,505C113,505,0,392,0,252.5z"/>
    <polygon fill="#FFFFFF" points="270,150.3 191.8,72.1 113.6,150.3 148.9,150.3 161,290.4 222.7,290.4 234.8,150.3"/>
    <polygon fill="#FFFFFF" points="235,354.7 313.2,432.9 391.4,354.7 356.1,354.7 344,214.6 282.3,214.6 270.2,354.7"/>
  </g>
</svg>